<svg width="387" height="87" viewBox="0 0 387 87" fill="none" xmlns="http://www.w3.org/2000/svg">
<path d="M137.32 83.4998V38.1665H125.231V30.1665H137.587V12.3887H146.654V30.1665H159.898V38.1665H146.92V83.4998H137.32Z" fill="#1F9D9D"/>
<path d="M101.955 84.5665C96.385 84.5665 91.3776 83.322 86.9331 80.8331C82.548 78.3442 79.0813 74.9665 76.5331 70.6998C74.0442 66.3739 72.7998 61.5739 72.7998 56.2998C72.7998 51.2628 74.0146 46.6998 76.4442 42.6109C78.8739 38.4628 82.1331 35.1739 86.222 32.7442C90.3702 30.3146 94.9331 29.0998 99.9109 29.0998C104.829 29.0998 109.333 30.285 113.422 32.6553C117.511 34.9665 120.77 38.1072 123.2 42.0776C125.629 46.0479 126.844 50.5516 126.844 55.5887V59.4998H91.9998C90.4591 59.4998 89 59.5 87.5 59.5C85.9 59.3815 84 59.5 82.5 59.5C83 64 85.3628 67.4998 88.9776 70.6998C92.6517 73.8998 97.0072 75.4998 102.044 75.4998C108.487 75.4998 114 72.4998 117.5 66.9998L126 67.0554C124.5 76.9998 115.674 81.6924 112.355 82.8776C109.096 84.0035 105.629 84.5665 101.955 84.5665ZM82.5 51.5C85.5 51.5 88.7405 51.4998 91.9998 51.4998H109.689C110.992 51.4998 112.266 51.5591 113.511 51.6776C114.815 51.7368 116.118 51.8257 117.422 51.9442C116.592 47.7961 114.518 44.3887 111.2 41.722C107.881 38.9961 104.118 37.6331 99.9109 37.6331C95.585 37.6331 91.7924 39.085 88.5331 41.9887C85.2739 44.8331 83 48 82.5 51.5Z" fill="#1F9D9D"/>
<path d="M364.136 83.4998V38.1665H352.047V30.1665H364.402V12.3887H373.469V30.1665H386.714V38.1665H373.736V83.4998H364.136Z" fill="#007695"/>
<path d="M317 83.8667V30.5333H325.889V40.3111C327.785 37.1704 330.304 34.6815 333.444 32.8444C336.585 30.9481 340.319 30 344.644 30L344.793 43.5C342 40.3111 334.979 39.7943 331.133 43.8667C328.111 47.0074 326.6 51.5111 326.6 57.3778V83.8667H317Z" fill="#007695"/>
<path d="M279.378 84.2109C274.518 84.2109 270.074 82.9961 266.044 80.5665C262.015 78.0776 258.785 74.7591 256.355 70.6109C253.985 66.4628 252.8 61.8702 252.8 56.8332C252.8 51.7961 253.985 47.2035 256.355 43.0554C258.785 38.9072 262.015 35.6184 266.044 33.1887C270.074 30.6998 274.518 29.4554 279.378 29.4554C283.052 29.4554 286.489 30.1369 289.689 31.4998C292.948 32.8628 295.763 34.7591 298.133 37.1887V30.1665H307.022V83.4998H298.133V76.4776C295.763 78.848 292.948 80.7443 289.689 82.1665C286.489 83.5295 283.052 84.2109 279.378 84.2109ZM280.622 75.4998C284 75.4998 287.052 74.6702 289.778 73.0109C292.563 71.2924 294.755 69.0406 296.355 66.2554C298.015 63.4109 298.844 60.2702 298.844 56.8332C298.844 53.3961 298.015 50.285 296.355 47.4998C294.755 44.6554 292.563 42.4035 289.778 40.7443C287.052 39.0258 284 38.1665 280.622 38.1665C277.244 38.1665 274.163 39.0258 271.378 40.7443C268.652 42.4035 266.459 44.6554 264.8 47.4998C263.2 50.285 262.4 53.3961 262.4 56.8332C262.4 60.2702 263.2 63.4109 264.8 66.2554C266.459 69.0406 268.652 71.2924 271.378 73.0109C274.163 74.6702 277.244 75.4998 280.622 75.4998Z" fill="#007695"/>
<path d="M67 86.9998L67 6.49982L58.5 6.49982L58.5 68.4998L27 40.9998L27 52.4998L67 86.9998Z" fill="#1F9D9D"/>
<path d="M0 0V80.5H8.5V18.5L40 46V34.5L0 0Z" fill="#1F9D9D"/>
<path d="M169 7V83.5H177.5V25.5L209.5 53.9998L215 48.4998L169 7Z" fill="#1F9D9D"/>
<path d="M246.5 7V83.5H238V25.5L217.5 45.9998L212 40.9998L246.5 7Z" fill="#007695"/>
</svg>
